{"asset":{"generator":"Khronos glTF Spline I/O v0.0.1","version":"2.0"},"scenes":[{"nodes":[0]}],"nodes":[{"name":"","children":[1,2,3,4,5,6,7,8,9,10]},{"name":"Portal","matrix":[1,0,0,0,0,-0.0006229639945467546,0.9999998059579117,0,0,-0.9999998059579117,-0.0006229639945467546,0,320,13,-46,1],"mesh":0},{"name":"MonolithHollow2","matrix":[1,0,0,0,0,1,0,0,0,0,1,0,263.72975256728387,21.47886190265308,-38,1],"mesh":1,"children":[11,12]},{"name":"MonolithHollow","matrix":[1,0,0,0,0,1,0,0,0,0,1,0,190.2685259974678,26.099669049930526,-12,1],"mesh":2},{"name":"Monolith","matrix":[1,0,0,0,0,1,0,0,0,0,1,0,142.5,26.099669049930526,-12,1],"mesh":3},{"name":"Backdrop","matrix":[1,0,0,0,0,1,0,0,0,0,1,0,96.1847240763891,21.66330886761716,-26,1],"mesh":4},{"name":"Torus","matrix":[0.48172157840546737,-0.5851770626949298,0.6523129051262466,0,0.5915566034239137,-0.3320378636384013,-0.7347187503092681,0,0.6465331436547558,0.7398098826091535,0.18621555184712832,0,100.9233802977052,50.24820070588105,-1.828534195986987,1],"mesh":5},{"name":"Cylinder","matrix":[0.8915973254427303,-0.45282911706665746,0,0,0.45282911706665746,0.8915973254427303,0,0,0,0,1,0,56.751234082750976,16.01889164771763,-1.993943766094155,1],"mesh":6},{"name":"Cube","matrix":[0.8491178787357557,-0.3367121290598279,-0.4069690039244851,0,0.4274993304525551,0.8906127823017486,0.1550909232139517,0,0.31023080194253255,-0.30566945242326093,0.9001794462113397,0,30.361475526424673,20.257115122869155,8.742906657849485,1],"mesh":7},{"name":"Directional Light","translation":[200,300,300],"rotation":[-0.4062840720729887,0.12301291902225084,-0.2623788760260691,0.8665785595944042],"extensions":{"KHR_lights_punctual":{"light":0}}},{"name":"Personal Camera","camera":0,"translation":[930.5357079795065,340.307368434142,626.8380429349319],"rotation":[-0.15137088819573613,0.3823190195888282,0.06364290758062492,0.9093231558594311]},{"name":"Cube 3","matrix":[0.817135927804095,0,0,0,0,0.9057647473039254,0,0,0,0,1.6519467944995638,0,0,0,0,1],"mesh":8},{"name":"Cube 2","matrix":[1,0,0,0,0,1,0,0,0,0,1,0,0,0,0,1],"mesh":9}],"cameras":[{"type":"orthographic","orthographic":{"xmag":2880,"ymag":1595,"zfar":100000,"znear":-100000}}],"meshes":[{"primitives":[{"attributes":{"POSITION":1,"NORMAL":2,"TEXCOORD_0":3},"indices":0}]},{"primitives":[{"attributes":{"POSITION":4,"NORMAL":5,"RANDOMCOLOR":6}}]},{"primitives":[{"attributes":{"POSITION":8,"NORMAL":9,"FACEMAP":10,"COLOR":11,"RANDOMCOLOR":12},"indices":7}]},{"primitives":[{"attributes":{"POSITION":14,"NORMAL":15},"indices":13}]},{"primitives":[{"attributes":{"POSITION":16,"NORMAL":17,"TEXCOORD_0":18}}]},{"primitives":[{"attributes":{"POSITION":20,"NORMAL":21,"TEXCOORD_0":22},"indices":19}]},{"primitives":[{"attributes":{"POSITION":24,"NORMAL":25,"TEXCOORD_0":26},"indices":23}]},{"primitives":[{"attributes":{"POSITION":28,"NORMAL":29,"TEXCOORD_0":30},"indices":27}]},{"primitives":[{"attributes":{"POSITION":32,"NORMAL":33,"TEXCOORD_0":34},"indices":31}]},{"primitives":[{"attributes":{"POSITION":36,"NORMAL":37,"TEXCOORD_0":38},"indices":35}]}],"buffers":[{"uri":"data:application/octet-stream;base64,","byteLength":113920},{"uri":"data:application/octet-stream;base64,","byteLength":50976},{"uri":"data:application/octet-stream;base64,","byteLength":21072},{"uri":"data:application/octet-stream;base64,","byteLength":1023360},{"uri":"data:application/octet-stream;base64,","byteLength":1920},{"uri":"data:application/octet-stream;base64,","byteLength":72176},{"uri":"data:application/octet-stream;base64,","byteLength":44416},{"uri":"data:application/octet-stream;base64,","byteLength":32424},{"uri":"data:application/octet-stream;base64,","byteLength":9864},{"uri":"data:application/octet-stream;base64,","byteLength":9864}],"bufferViews":[{"buffer":0,"byteOffset":0,"byteLength":30720,"target":34963},{"buffer":0,"byteOffset":30720,"byteLength":31200,"target":34962},{"buffer":0,"byteOffset":61920,"byteLength":31200,"target":34962},{"buffer":0,"byteOffset":93120,"byteLength":20800,"target":34962},{"buffer":1,"byteOffset":0,"byteLength":16992,"target":34962},{"buffer":1,"byteOffset":16992,"byteLength":16992,"target":34962},{"buffer":1,"byteOffset":33984,"byteLength":16992,"target":34962},{"buffer":2,"byteOffset":0,"byteLength":1704,"target":34963},{"buffer":2,"byteOffset":1704,"byteLength":4272,"target":34962},{"buffer":2,"byteOffset":5976,"byteLength":4272,"target":34962},{"buffer":2,"byteOffset":10248,"byteLength":856,"target":34962},{"buffer":2,"byteOffset":11104,"byteLength":5696,"target":34962},{"buffer":2,"byteOffset":16800,"byteLength":4272,"target":34962},{"buffer":3,"byteOffset":0,"byteLength":204672,"target":34963},{"buffer":3,"byteOffset":204672,"byteLength":409344,"target":34962},{"buffer":3,"byteOffset":614016,"byteLength":409344,"target":34962},{"buffer":4,"byteOffset":0,"byteLength":720,"target":34962},{"buffer":4,"byteOffset":720,"byteLength":720,"target":34962},{"buffer":4,"byteOffset":1440,"byteLength":480,"target":34962},{"buffer":5,"byteOffset":0,"byteLength":18576,"target":34963},{"buffer":5,"byteOffset":18576,"byteLength":20100,"target":34962},{"buffer":5,"byteOffset":38676,"byteLength":20100,"target":34962},{"buffer":5,"byteOffset":58776,"byteLength":13400,"target":34962},{"buffer":6,"byteOffset":0,"byteLength":11136,"target":34963},{"buffer":6,"byteOffset":11136,"byteLength":12480,"target":34962},{"buffer":6,"byteOffset":23616,"byteLength":12480,"target":34962},{"buffer":6,"byteOffset":36096,"byteLength":8320,"target":34962},{"buffer":7,"byteOffset":0,"byteLength":6312,"target":34963},{"buffer":7,"byteOffset":6312,"byteLength":9792,"target":34962},{"buffer":7,"byteOffset":16104,"byteLength":9792,"target":34962},{"buffer":7,"byteOffset":25896,"byteLength":6528,"target":34962},{"buffer":8,"byteOffset":0,"byteLength":1416,"target":34963},{"buffer":8,"byteOffset":1416,"byteLength":3168,"target":34962},{"buffer":8,"byteOffset":4584,"byteLength":3168,"target":34962},{"buffer":8,"byteOffset":7752,"byteLength":2112,"target":34962},{"buffer":9,"byteOffset":0,"byteLength":1416,"target":34963},{"buffer":9,"byteOffset":1416,"byteLength":3168,"target":34962},{"buffer":9,"byteOffset":4584,"byteLength":3168,"target":34962},{"buffer":9,"byteOffset":7752,"byteLength":2112,"target":34962}],"accessors":[{"bufferView":0,"byteOffset":0,"componentType":5123,"count":15360,"type":"SCALAR","min":[0],"max":[2599]},{"bufferView":1,"byteOffset":0,"componentType":5126,"count":2600,"type":"VEC3","min":[-12.5,-2.5,-12.5],"max":[12.5,2.5,12.5]},{"bufferView":2,"byteOffset":0,"componentType":5126,"count":2600,"type":"VEC3","min":[-1,-1,-1],"max":[1,1,1]},{"bufferView":3,"byteOffset":0,"componentType":5126,"count":2600,"type":"VEC2","min":[0,0],"max":[1,1]},{"bufferView":4,"byteOffset":0,"componentType":5126,"count":1416,"type":"VEC3","min":[-12.5,-25,-2.5],"max":[12.5,25,2.5]},{"bufferView":5,"byteOffset":0,"componentType":5126,"count":1416,"type":"VEC3","min":[-0.9951943755149841,-0.9941051006317139,-1],"max":[0.9951943755149841,0.9941051006317139,1]},{"bufferView":6,"byteOffset":0,"componentType":5126,"count":1416,"type":"VEC3","min":[0.1694929599761963,0.5258396863937378,0.07508328557014465],"max":[0.1694929599761963,0.5258396863937378,0.07508328557014465]},{"bufferView":7,"byteOffset":0,"componentType":5125,"count":426,"type":"SCALAR","min":[0],"max":[355]},{"bufferView":8,"byteOffset":0,"componentType":5126,"count":356,"type":"VEC3","min":[-12.5,-25.15794563293457,-2.5],"max":[12.5,25,2.5]},{"bufferView":9,"byteOffset":0,"componentType":5126,"count":356,"type":"VEC3","min":[-0.981627345085144,-0.9869652986526489,-0.9587734937667847],"max":[0.981627345085144,0.9837668538093567,0.98771071434021]},{"bufferView":10,"byteOffset":0,"componentType":5125,"count":214,"type":"SCALAR","min":[0],"max":[141]},{"bufferView":11,"byteOffset":0,"componentType":5126,"count":356,"type":"VEC4","min":[0,0,0,0],"max":[1,1,1,0]},{"bufferView":12,"byteOffset":0,"componentType":5126,"count":356,"type":"VEC3","min":[0.5880048871040344,0.359316349029541,0.5513097047805786],"max":[0.5880048871040344,0.359316349029541,0.5513097047805786]},{"bufferView":13,"byteOffset":0,"componentType":5125,"count":51168,"type":"SCALAR","min":[0],"max":[34111]},{"bufferView":14,"byteOffset":0,"componentType":5126,"count":34112,"type":"VEC3","min":[-12.5,-25,-2.5],"max":[12.5,25,2.5]},{"bufferView":15,"byteOffset":0,"componentType":5126,"count":34112,"type":"VEC3","min":[-1,-1,-1],"max":[1,1,1]},{"bufferView":16,"byteOffset":0,"componentType":5126,"count":60,"type":"VEC3","min":[-9.184723854064941,-15,-12],"max":[9.184723854064941,15,12]},{"bufferView":17,"byteOffset":0,"componentType":5126,"count":60,"type":"VEC3","min":[0,0,0],"max":[0,1,1]},{"bufferView":18,"byteOffset":0,"componentType":5126,"count":60,"type":"VEC2","min":[0,0],"max":[1,1]},{"bufferView":19,"byteOffset":0,"componentType":5123,"count":9288,"type":"SCALAR","min":[25],"max":[1649]},{"bufferView":20,"byteOffset":0,"componentType":5126,"count":1675,"type":"VEC3","min":[-7,-7,-2.000499963760376],"max":[7,7,2.000499963760376]},{"bufferView":21,"byteOffset":0,"componentType":5126,"count":1675,"type":"VEC3","min":[-1,-1,-1],"max":[1,1,1]},{"bufferView":22,"byteOffset":0,"componentType":5126,"count":1675,"type":"VEC2","min":[0,0],"max":[1,1]},{"bufferView":23,"byteOffset":0,"componentType":5123,"count":5568,"type":"SCALAR","min":[0],"max":[1038]},{"bufferView":24,"byteOffset":0,"componentType":5126,"count":1040,"type":"VEC3","min":[-7.4555768966674805,-7.5,-7.4555768966674805],"max":[7.4555768966674805,7.5,7.4555768966674805]},{"bufferView":25,"byteOffset":0,"componentType":5126,"count":1040,"type":"VEC3","min":[-0.9997637867927551,-1,-0.9997637867927551],"max":[0.9997637867927551,1,0.9997637867927551]},{"bufferView":26,"byteOffset":0,"componentType":5126,"count":1040,"type":"VEC2","min":[0,0],"max":[1,1]},{"bufferView":27,"byteOffset":0,"componentType":5123,"count":3156,"type":"SCALAR","min":[0],"max":[815]},{"bufferView":28,"byteOffset":0,"componentType":5126,"count":816,"type":"VEC3","min":[-5,-5,-5],"max":[5,5,5]},{"bufferView":29,"byteOffset":0,"componentType":5126,"count":816,"type":"VEC3","min":[-1,-1,-1],"max":[1,1,1]},{"bufferView":30,"byteOffset":0,"componentType":5126,"count":816,"type":"VEC2","min":[0,0],"max":[1,1]},{"bufferView":31,"byteOffset":0,"componentType":5123,"count":708,"type":"SCALAR","min":[0],"max":[263]},{"bufferView":32,"byteOffset":0,"componentType":5126,"count":264,"type":"VEC3","min":[-12.5,-25,-2.5],"max":[12.5,25,2.5]},{"bufferView":33,"byteOffset":0,"componentType":5126,"count":264,"type":"VEC3","min":[-1,-1,-1],"max":[1,1,1]},{"bufferView":34,"byteOffset":0,"componentType":5126,"count":264,"type":"VEC2","min":[0,0],"max":[1,1]},{"bufferView":35,"byteOffset":0,"componentType":5123,"count":708,"type":"SCALAR","min":[0],"max":[263]},{"bufferView":36,"byteOffset":0,"componentType":5126,"count":264,"type":"VEC3","min":[-12.5,-25,-2.5],"max":[12.5,25,2.5]},{"bufferView":37,"byteOffset":0,"componentType":5126,"count":264,"type":"VEC3","min":[-1,-1,-1],"max":[1,1,1]},{"bufferView":38,"byteOffset":0,"componentType":5126,"count":264,"type":"VEC2","min":[0,0],"max":[1,1]}],"extensions":{"KHR_lights_punctual":{"lights":[{"type":"directional","name":"Directional Light","color":[1,1,1],"intensity":0.7}]}},"extensionsUsed":["KHR_lights_punctual"]}