<svg xmlns="http://www.w3.org/2000/svg" viewBox="0 0 150 150" preserveAspectRatio="xMidYMid slice">
  <defs>
    <mask id="polygonMask" maskUnits="userSpaceOnUse">
      <!-- 전체 배경: 검정 (숨김) -->
      <rect width="150" height="150" fill="black"/>
      <!-- 도형 안쪽: 흰색 (보임) => 마스크 안에서 보이게 -->
      <path
        d="M36.91109 11.29892 A10.174186837309547 10.174186837309547 0 0 0 32.08188 14.42927 L8.02914 42.47306 A10.286017360491565 10.286017360491565 0 0 0 5.65336 47.72029 L0.42269 84.4746 A10.31784281197996 10.31784281197996 0 0 0 1.23572 90.17835 L16.5002 123.9466 A10.232357977878008 10.232357977878008 0 0 0 20.25209 128.31395 L51.1366 148.36633 A10.129611640529214 10.129611640529214 0 0 0 56.65277 150 L93.34723 150 A10.129611640529367 10.129611640529367 0 0 0 98.8634 148.36633 L129.74791 128.31395 A10.232357977878067 10.232357977878067 0 0 0 133.4998 123.9466 L148.76428 90.17835 A10.31784281197996 10.31784281197996 0 0 0 149.57731 84.4746 L144.34664 47.72029 A10.286017360491746 10.286017360491746 0 0 0 141.97086 42.47306 L117.91812 14.42927 A10.174186837309547 10.174186837309547 0 0 0 113.08891 11.29892 L77.87612 0.85319 A10.113054096736366 10.113054096736366 0 0 0 72.12388 0.85319 Z"
        fill="white"
      />
    </mask>
  </defs>

  <!-- 마스크 적용된 회전용 도형 -->
  <rect width="150" height="150" fill="black" mask="url(#polygonMask)" />
</svg>
