<?xml version="1.0" encoding="utf-8"?>
<!-- Generator: Adobe Illustrator 22.1.0, SVG Export Plug-In . SVG Version: 6.00 Build 0)  -->
<svg version="1.1" id="Layer_1" xmlns="http://www.w3.org/2000/svg" xmlns:xlink="http://www.w3.org/1999/xlink" x="0px" y="0px"
	 viewBox="0 0 400 400" style="enable-background:new 0 0 400 400;" xml:space="preserve">
<style type="text/css">
	.st0{fill:none;stroke:#000000;stroke-width:5;stroke-linecap:round;stroke-linejoin:round;stroke-miterlimit:10;}
</style>
<g id="XMLID_3252_">
	<path id="XMLID_3250_" class="st0" d="M107.6,100.8c0,0,7.8,24.2,10.7,33.3c2.9,9,8,21.3,10.8,26c2.9,4.7,13.7,19.9,14.8,22
		c1.1,2.2,7.2,11.9,10.8,14.8s9.4,6.1,11.2,6.1"/>
	<path id="XMLID_3247_" class="st0" d="M229.8,216.5c0,0-0.2,14.7,1.7,21.9s3.4,13,3.4,13s0.5,9.4-0.2,13.5s-6,40-6.7,44.3
		s-5.8,30.8-5.8,30.8"/>
	<path id="XMLID_3245_" class="st0" d="M233.6,256.3c0,0-4.8,0.5-9.2,0c-4.3-0.5-12-4.1-12-4.1s-10.1,2.2-16.6,2.4
		s-23.4,0.2-25.5,0.2c-2.2,0-3.6,0-3.6,0s-10.8,0.7-18.3,0.7s-7.5,0-7.5,0s-13.5,9.9-17.6,11.8c-4.1,1.9-8.2,2.2-13.7,6
		s-22.3,15-25.6,17.2c-3.4,2.2-15.2,10.4-17.8,11.8c-2.7,1.4-8.4,5.8-10.4,6c-1.9,0.2-9.6,2.9-12.5,1s-6.5-4.8-6.5-7s0-2.2,0-2.2
		s6.5-6.5,15.2-12s25.8-22.4,29.9-25.3c4.1-2.9,12.5-13.3,14-15.2c1.4-1.9,1.4-1.9,1.4-1.9s7.7-2.7,14-6s14.7-10.8,19-12.3
		c4.3-1.4,17.1-8,22.4-9.4"/>
	<path id="XMLID_3243_" class="st0" d="M160.4,256.7c0,0-1.2,7.1,1.4,9.8c2.6,2.7,5.2,4.9,10.2,4.9s11.9-1.2,14.5-1.5
		s12.1-0.5,17.6-1s10.5-1.2,13.1-1.2s7.6,2.2,11.7,2.7c4,0.5,4,0.5,4,0.5"/>
	<path id="XMLID_3242_" class="st0" d="M208.6,254.6c0,0,4.8,5.5,5.5,6.5"/>
	<path id="XMLID_3241_" class="st0" d="M61.6,306.4c0,0,2.7,2.4,5.5,2.4s5.8-0.7,8.7-3.9s10.4-13.5,10.4-13.5l3.6-4.6"/>
	<path id="XMLID_3240_" class="st0" d="M75.8,304.9c0,0,0.5,3.1,6,3.1s9.9-3.4,12.5-5.3c2.7-1.9,5.5-8.2,6.3-9.4
		c0.7-1.2,7-7.2,8.2-8.2s13.3-15.2,13.3-15.2"/>
	<path id="XMLID_3239_" class="st0" d="M106.6,239.9c0,0,6.1-10.6,10.2-13.3s9.4-8.8,18.1-11.7s12.7-7.3,17.2-9.8
		c4.6-2.4,8.4-1.4,8.4-1.4s8.7-1.2,12.8-1.2s10.1-4.3,14.9-6.5c4.8-2.2,16.4-6.7,25.1-9.6c8.7-2.9,19-8,31.1-10.8s29.4-7.2,42.4-6
		s18.6,2.9,24.6,6s18.3,9.6,23.9,17.8c5.5,8.2,11.8,17.1,11.3,41.9s-0.2,68.4-0.2,68.4l0.7,34.7"/>
	<path id="XMLID_3238_" class="st0" d="M121.4,221c0,0-7.6,0.4-11,1s-9.5,0.7-13.6,0.5s-16.6-0.4-18.1-0.4s-1.4,0-1.4,0
		s-2.7,4.3,0.7,9.3c3.4,4.9,6.1,7,8.8,7.6c2.7,0.6,7.6,1.3,10.6,1.3s7.2-0.1,7.2-0.1"/>
	<path id="XMLID_3237_" class="st0" d="M90.8,224.6c0,0,0.4,3.1-0.5,4c-0.8,0.8-7.3,4.5-7.3,4.5"/>
	<path id="XMLID_2689_" class="st0" d="M286.7,168.1c0,0,9.4-5.1,17.3-12.3c8-7.2,15.2-12.3,18.8-18.8s5.4-11.2,5.4-11.2"/>
	<path id="XMLID_2688_" class="st0" d="M147.4,98.3c0,0,2.3,4,5.8,3.6c3.4-0.4,6.7-2.9,6.7-2.9"/>
	<path id="XMLID_2655_" class="st0" d="M130.4,123.1l13.9-11.9c0,0,4.3,1.1,7.6,1.1s6.1-1.1,8.9-2.5c2.7-1.4,4-1.6,4-1.6l13.9,2.5
		c0,0,21,5.4,25.7,5.6s7,0.9,9.9,0s4.5-3.4,4.5-3.4"/>
	<path id="XMLID_2654_" class="st0" d="M143.6,131.6c0,0,6.3,3.4,11,4c4.7,0.6,11.7,1.1,15.2,0.5c3.4-0.5,7.8-3.1,7.8-3.1l3.1-2"/>
</g>
</svg>
