<?xml version="1.0" encoding="utf-8"?>
<!-- Generator: Adobe Illustrator 22.1.0, SVG Export Plug-In . SVG Version: 6.00 Build 0)  -->
<svg version="1.1" id="Layer_1" xmlns="http://www.w3.org/2000/svg" xmlns:xlink="http://www.w3.org/1999/xlink" x="0px" y="0px"
	 viewBox="0 0 400 400" style="enable-background:new 0 0 400 400;" xml:space="preserve">
<style type="text/css">
	.st0{fill:none;stroke:#272727;stroke-width:5;stroke-linecap:round;stroke-linejoin:round;stroke-miterlimit:10;}
</style>
<g id="XMLID_118_">
	<path id="XMLID_116_" class="st0" d="M158.3,56.3c0,0,0,1.7,4.3,11.7s7.8,15.5,12.1,20.3c4.3,4.8,9.5,9.1,9.5,11.2
		c0,2.2,1.3,6.5-0.9,9.5s-6.5,6.5-10.4,8.6c-3.9,2.2-9.1,4.3-11.2,6.9s-2.2,3.5-2.2,5.2s0,1.7,0,1.7"/>
	<path id="XMLID_115_" class="st0" d="M148.4,121.9c0,0-10.4-1.3-14.3,2.2"/>
	<path id="XMLID_114_" class="st0" d="M191.1,144.4c0,0-9.1-2.6-13.8-2.6c-4.8,0-3.9-1.7-9.1,2.2c-5.2,3.9-15.5,10.8-22.5,13.4
		c-6.9,2.6-20.3,5.6-29.8,10.4s-23.3,9.5-25,12.1s-2.2,6.5-6,13.4C81,200.2,75,207.1,73.2,211c-1.7,3.9-7.8,17.3-10.8,22.5
		c-3,5.2-5.2,8.2-7.8,14.7s-4.3,12.1-6,16.8c-1.7,4.8-4.3,6.9,0.4,9.1c4.8,2.2,7.3,2.2,12.1,2.2s10.4-3.9,13.8-7.8
		c3.5-3.9,4.8-6.9,12.1-18.6c0,0,2.2-3.9,6-8.6c3.9-4.8,11.7-14.3,15.1-18.6c3.5-4.3,6-10.5,7.5-11.9c1.4-1.4,4-2.3,8.6-3.5
		c4.6-1.2,11.8-4.9,11.8-4.9"/>
	<path id="XMLID_113_" class="st0" d="M172.1,159.9c0,0-4.3,7.2-6,9.5"/>
	<path id="XMLID_112_" class="st0" d="M160.6,174.6c0,0-4.9,7.5-12.1,14.4s-15.8,17-18.7,21.9s-5.5,9.8-6,12.4s-0.6,14.1-0.6,21
		s-1.2,39.7-0.6,46.9s-0.9,4.3,0.9,9.2c1.7,4.9,5.2,21,7.8,28.2c2.6,7.2,3.7,12.1,6,13s0.9,3.7,5.8,0.6s7.5-2.9,9.8-7.5
		s2.9-6.9,2.9-6.9"/>
	<path id="XMLID_111_" class="st0" d="M234.3,159.6c0,0-8.6-1.2-11.2,0"/>
	<path id="XMLID_110_" class="st0" d="M208.4,175.8c0,0-0.3,2.6-10.1,13.2c-9.8,10.7-13.8,15.8-16.7,19.9c-2.9,4-7.5,10.1-10.4,13.8
		s-6.6,10.4-7.8,14.4s-2.3,10.9-3.5,17.9c-1.2,6.9-2.9,16.7-3.5,24.8s-1.2,18.4-1.2,24.8c0,6.3,0.3,15.5,0.3,20.4s0.6,12.7,1.4,16.1
		c0.9,3.5-0.3,4.9,4.6,5.2s12.4-0.9,14.4-3.5s6.3-4,7.5-18.4s0.9-21.3,1.4-23c0.6-1.7,3.5-5.2,5.5-13s7.8-27.9,7.8-32.2
		c0-4.3,0-4.3,0-4.3s9.5-13.2,13.5-18.1s8.6-10.5,8.6-10.5"/>
	<path id="XMLID_109_" class="st0" d="M252.4,185.8c0,0-10.1,10.7-15.8,16.1s-11.5,14.4-13.2,16.7s-9.2,15.5-10.1,19.6
		c-0.9,4-3.7,9.2-5.5,15.5c-1.7,6.3-2.6,11.8-4,15.3s-2,2.9-3.2,9.5c-1.2,6.6-2.6,15.3-2.6,19.9c0,4.6-0.6,10.4,0,12.1
		s5.8,2.6,9.8,1.7s7.2-3.2,12.1-10.4c4.9-7.2,6.3-16.4,6.3-16.4s2.6-3.5,8.9-14.7c6.3-11.2,8.3-23.6,12.1-26.5s8.3-7.5,13.2-11.8
		s10.1-8.9,12.7-10.1c2.6-1.2,7.8-3.5,7.8-3.5"/>
	<path id="XMLID_108_" class="st0" d="M308.9,233.6c0,0-8.1,1.4-15.8-0.3c-7.8-1.7-18.7-10.2-18.7-10.2"/>
	<path id="XMLID_107_" class="st0" d="M120.9,271.6c0,0-4.3,5.2-10.7,6c-6.3,0.9-15-0.6-17.6-2.3c-2.6-1.7-6-6.6-6-8.3
		s-2-12.7,3.7-15.8c5.8-3.2,12.7-5.8,19.6-10.9c6.9-5.2,12.7-9.3,12.7-9.3"/>
	<line id="XMLID_106_" class="st0" x1="206.7" y1="259" x2="200" y2="261"/>
	<path id="XMLID_105_" class="st0" d="M243.8,255.5c0,0,6.9-1.4,13.2-3.5c6.3-2.1,4.9-2.3,17.6-3.2s19-0.9,19-0.9"/>
	<line id="XMLID_104_" class="st0" x1="300.8" y1="252.3" x2="306.8" y2="258.1"/>
	<path id="XMLID_103_" class="st0" d="M317.8,313.7c0,0-9.5-23.6-12.1-29.7c-2.6-6-6.3-14.7-10.7-21.6c-4.3-6.9-10.8-13.2-10.8-13.2
		"/>
	<path id="XMLID_102_" class="st0" d="M183.3,151.9c0,0,8.9-8.3,15.3-8.9c6.4-0.6,13.5,2.9,17.3,4.3c3.7,1.4,22.7,5.8,36,7.8
		c13.2,2,21.3,3.2,29.7,4c8.3,0.9,21.3,2.9,31.1,5.5s25.6,8.3,32.2,13.2s14.1,12.4,22.5,29.1c8.3,16.7,19,42.3,19,42.3l2.9,6"/>
	<path id="XMLID_101_" class="st0" d="M188.2,140.3c1.2-2.3,9.2-44.9,9.2-44.9s1.1-8.1,0.7-17.8"/>
	<path id="XMLID_100_" class="st0" d="M56.1,240.5c0,0-14.4-4.3-22.5-7.2s-21-8.9-23.9-11.5"/>
	<path id="XMLID_99_" class="st0" d="M200.6,295.2c0,0,7.8-0.3,9.2,2.6c1.4,2.9,2.3,10.1,2.3,10.1"/>
	<path id="XMLID_98_" class="st0" d="M157.7,322.6c0,0,7.5,0.3,10.1,2.3s6,5.5,6,9.5s0,6.9,0,6.9"/>
	<path id="XMLID_97_" class="st0" d="M130.9,320c0,0,4.6-1.4,8.6,0s6.3,2.3,8.3,6.3s2,10.1,2,10.1"/>
	<path id="XMLID_96_" class="st0" d="M53.8,250.9c0,0,9.5-0.3,10.7,2.3c1.2,2.6,2,6.6,1.7,9.5c-0.3,2.9-5.8,11.5-5.8,11.5"/>
</g>
</svg>